<?xml version="1.0" standalone="no"?>
<!DOCTYPE svg PUBLIC "-//W3C//DTD SVG 20010904//EN"
 "http://www.w3.org/TR/2001/REC-SVG-20010904/DTD/svg10.dtd">
<svg version="1.0" xmlns="http://www.w3.org/2000/svg"
 width="304.000000pt" height="270.000000pt" viewBox="0 0 304.000000 270.000000"
 preserveAspectRatio="xMidYMid meet">

<g transform="translate(0.000000,270.000000) scale(0.100000,-0.100000)"
fill="#000000" stroke="none">
<path d="M0 1350 l0 -1350 1520 0 1520 0 0 1350 0 1350 -1520 0 -1520 0 0
-1350z m1255 624 c10 -11 14 -25 11 -38 -41 -143 -45 -188 -21 -279 22 -85 61
-154 119 -213 119 -118 305 -162 457 -109 83 30 101 2 57 -87 -81 -162 -277
-278 -474 -278 -64 0 -193 37 -252 73 -183 111 -289 334 -254 537 29 169 130
306 285 387 51 27 51 27 72 7z"/>
</g>
</svg>
